<?xml version="1.0" encoding="UTF-8"?>
<svg width="42px" height="36px" viewBox="0 0 42 36" version="1.1" xmlns="http://www.w3.org/2000/svg" xmlns:xlink="http://www.w3.org/1999/xlink">
    <!-- Generator: Sketch 50.2 (55047) - http://www.bohemiancoding.com/sketch -->
    <title>comment-dots_light</title>
    <desc>Created with Sketch.</desc>
    <defs></defs>
    <g id="Comment" stroke="none" stroke-width="1" fill="none" fill-rule="evenodd">
        <g id="CommentBox" transform="translate(-211.000000, -139.000000)" fill="#999999" fill-rule="nonzero">
            <g id="comment-dots_light" transform="translate(211.000000, 139.000000)">
                <path d="M10.5040827,14.7857143 C9.41320845,14.7857143 8.53558784,15.6455357 8.53558784,16.7142857 C8.53558784,17.7830357 9.41320845,18.6428571 10.5040827,18.6428571 C11.5949569,18.6428571 12.4725775,17.7830357 12.4725775,16.7142857 C12.4725775,15.6455357 11.5949569,14.7857143 10.5040827,14.7857143 Z M21.0027218,14.7857143 C19.9118476,14.7857143 19.0342269,15.6455357 19.0342269,16.7142857 C19.0342269,17.7830357 19.9118476,18.6428571 21.0027218,18.6428571 C22.093596,18.6428571 22.9712166,17.7830357 22.9712166,16.7142857 C22.9712166,15.6455357 22.093596,14.7857143 21.0027218,14.7857143 Z M31.5013609,14.7857143 C30.4104867,14.7857143 29.5328661,15.6455357 29.5328661,16.7142857 C29.5328661,17.7830357 30.4104867,18.6428571 31.5013609,18.6428571 C32.5922351,18.6428571 33.4698557,17.7830357 33.4698557,16.7142857 C33.4698557,15.6455357 32.5922351,14.7857143 31.5013609,14.7857143 Z M21.0027218,0 C9.40500639,0 0.00544356292,7.48125 0.00544356292,16.7142857 C0.00544356292,20.5392857 1.63765386,24.0428571 4.34433426,26.8633929 C3.12222705,30.0294643 0.579587889,32.7133929 0.53857758,32.7455357 C-0.00275849889,33.3080357 -0.150395611,34.1276786 0.161282737,34.8348214 C0.472961086,35.5419643 1.18654046,36 1.9739384,36 C7.01820641,36 10.9962064,33.9348214 13.3830064,32.2794643 C15.7534022,33.0107143 18.3124455,33.4285714 21.0027218,33.4285714 C32.6004372,33.4285714 42,25.9473214 42,16.7142857 C42,7.48125 32.6004372,0 21.0027218,0 Z M21.0027218,30.8571429 C18.6815383,30.8571429 16.384961,30.5116071 14.1786064,29.8285714 L12.931893,29.4428571 L11.8656249,30.1821429 C9.97915072,31.4919643 7.06741878,33.01875 3.45030952,33.3642857 C4.43455694,32.1508929 5.89452394,30.1178571 6.79675074,27.7714286 L7.37909712,26.26875 L6.25541466,25.0955357 C3.8850188,22.6366071 2.63010334,19.7357143 2.63010334,16.7142857 C2.63010334,8.91964286 10.8731755,2.57142857 21.0027218,2.57142857 C31.1322681,2.57142857 39.3753402,8.91964286 39.3753402,16.7142857 C39.3753402,24.5089286 31.1322681,30.8571429 21.0027218,30.8571429 Z" id="Shape"></path>
            </g>
        </g>
    </g>
</svg>